<svg width="63" height="73" viewBox="0 0 63 73" fill="none" xmlns="http://www.w3.org/2000/svg">
<path d="M15.4541 71.3997L13.5894 69.6742L11.7593 67.965L9.99774 66.2878L8.33775 64.6583L6.81063 63.091L5.44563 61.5998L4.26942 60.197L3.30573 58.8938L2.5749 57.6997L2.09364 56.6226L1.87467 55.6685L1.92663 54.8413L2.25385 54.1431L2.85633 53.574L3.72973 53.1318L4.86544 52.8126L6.2507 52.6103L7.86884 52.5172L9.69948 52.5236L11.7189 52.6186L13.9005 52.7895L16.2149 53.0228L18.6309 53.3036L21.1154 53.6165L23.6345 53.9457L26.1537 54.2748L28.6382 54.5878L31.0542 54.8686L33.3686 55.1018L35.5502 55.2727L37.5696 55.3677L39.4003 55.3742L41.0184 55.281L42.4036 55.0788L43.5394 54.7595L44.4128 54.3174L45.0152 53.7482L45.3425 53.05L45.3944 52.2229L45.1755 51.2687L44.6942 50.1916L43.9634 48.9976L42.9997 47.6944L41.8235 46.2916L40.4585 44.8003L38.9313 43.233L37.2713 41.6035L35.5098 39.9264L33.6797 38.2171L31.815 36.4916L29.9504 34.7661L28.1202 33.0569L26.3587 31.3797L24.6987 29.7502L23.1716 28.1829L21.8066 26.6916L20.6304 25.2888L19.6667 23.9856L18.9359 22.7916L18.4546 21.7145L18.2356 20.7604L18.2876 19.9332L18.6148 19.235L19.2173 18.6659L20.0907 18.2237L21.2264 17.9045L22.6117 17.7022L24.2298 17.6091L26.0605 17.6155L28.0799 17.7105L30.2615 17.8814L32.5759 18.1146L34.9918 18.3955L37.4764 18.7084L39.9955 19.0376L42.5146 19.3667L44.9992 19.6797L47.4151 19.9605L49.7296 20.1937L51.9111 20.3646L53.9306 20.4596L55.7612 20.4661L57.3794 20.3729L58.7646 20.1707L59.9003 19.8514L60.7737 19.4092L61.3762 18.8401L61.7034 18.1419L61.7554 17.3148L61.5364 16.3606L61.0552 15.2835L60.3243 14.0895L59.3606 12.7863L58.1844 11.3835L56.8194 9.89218L55.2923 8.32492L53.6323 6.69537L51.8708 5.01824L50.0407 3.30897L48.176 1.5835" stroke="#EBEBEB" stroke-width="2"/>
</svg>
