<svg width="49" height="49" viewBox="0 0 49 49" fill="none" xmlns="http://www.w3.org/2000/svg">
<path d="M45.3763 5.5144L44.039 4.1764C42.822 2.96025 41.1718 2.2771 39.4513 2.2771C37.7308 2.2771 36.0806 2.96025 34.8636 4.1764L7.84105 31.2004L2.4853 45.2044C1.8568 46.8619 2.69605 47.6966 4.3483 47.0651L18.3546 41.7146L45.3763 14.6899C47.912 12.1579 47.909 8.05015 45.3763 5.5144M28.4046 12.6289L30.2856 14.5091L11.7126 33.0836L9.83155 31.2019L28.4046 12.6289M31.2801 15.5044L34.0513 18.2764L15.4791 36.8501L12.7078 34.0789L31.2801 15.5044ZM9.0463 43.7666L5.7898 40.5071L8.94055 32.3014L17.2498 40.6091L9.0463 43.7666M18.3546 39.7264L16.4751 37.8446L35.0466 19.2709L36.9276 21.1526L18.3546 39.7264M38.0113 20.0689L29.4875 11.5466L31.6078 9.42565L40.1315 17.9479L38.0113 20.0689Z" fill="#EBEBEB"/>
</svg>
