<svg width="49" height="49" viewBox="0 0 49 49" fill="none" xmlns="http://www.w3.org/2000/svg">
<g clip-path="url(#clip0_45_1275)">
<path d="M47.2155 43.6689L40.7222 37.2156V12.3889L37.6555 6.74892C37.4293 6.31892 37.0899 5.95889 36.674 5.70773C36.2581 5.45657 35.7814 5.32383 35.2955 5.32383C34.8097 5.32383 34.333 5.45657 33.9171 5.70773C33.5012 5.95889 33.1618 6.31892 32.9355 6.74892L30.0555 12.4023V26.6022L5.66888 2.33558C5.48238 2.14754 5.24412 2.0193 4.98445 1.96721C4.72479 1.91512 4.45549 1.94153 4.2109 2.04309C3.96631 2.14464 3.7575 2.31674 3.6111 2.53743C3.4647 2.75813 3.38734 3.01742 3.38888 3.28225V14.0556H6.28221V16.1889H3.38888V24.7223H6.28221V26.8556H3.38888V35.7223H6.28221V37.8556H3.38888V44.6156C3.38888 44.9692 3.52935 45.3083 3.7794 45.5584C4.02945 45.8084 4.36859 45.9489 4.72221 45.9489H46.2689C46.5337 45.9505 46.793 45.8731 47.0137 45.7267C47.2344 45.5803 47.4065 45.3715 47.508 45.1269C47.6096 44.8823 47.636 44.613 47.5839 44.3533C47.5318 44.0937 47.4036 43.8554 47.2155 43.6689V43.6689ZM14.0555 35.3889V23.3089L26.1489 35.3889H14.0555ZM38.0555 38.2023H32.7222V34.9623H38.0555V38.2023ZM38.0555 32.8689H32.7222V13.0556L35.3089 8.02892L38.0555 13.0689V32.8689Z" fill="#EBEBEB"/>
</g>
<defs>
<clipPath id="clip0_45_1275">
<rect width="48" height="48" fill="white" transform="translate(0.722229 0.722168)"/>
</clipPath>
</defs>
</svg>
