<svg width="109" height="32" viewBox="0 0 109 32" fill="none" xmlns="http://www.w3.org/2000/svg">
<g clip-path="url(#clip0_1_1939)">
<path d="M106.361 0.444336H2.22454C1.2417 0.444336 0.444946 1.24015 0.444946 2.22184V29.7731C0.444946 30.7548 1.2417 31.5506 2.22454 31.5506H106.361C107.344 31.5506 108.141 30.7548 108.141 29.7731V2.22184C108.141 1.24015 107.344 0.444336 106.361 0.444336Z" fill="white" stroke="white" stroke-width="1.08458"/>
<path d="M25.7173 15.2498C25.6967 12.7892 27.7352 11.5899 27.8301 11.5363C26.6747 9.85466 24.8838 9.62385 24.2525 9.60736C22.7463 9.45076 21.2897 10.5059 20.5222 10.5059C19.7423 10.5059 18.5621 9.62385 17.2871 9.6486C15.6489 9.67331 14.118 10.6213 13.2803 12.0886C11.5472 15.085 12.8388 19.4868 14.5018 21.9102C15.3311 23.0973 16.3009 24.4203 17.5718 24.3749C18.8138 24.3255 19.2801 23.5836 20.778 23.5836C22.2635 23.5836 22.7009 24.3749 23.9966 24.3461C25.3295 24.3255 26.1713 23.1549 26.9718 21.9597C27.9332 20.5996 28.317 19.2601 28.3335 19.1941C28.3005 19.1735 25.7421 18.1967 25.7173 15.2498ZM23.2704 8.01232C23.9389 7.17565 24.3969 6.04223 24.269 4.88818C23.3034 4.92938 22.0902 5.55586 21.397 6.37195C20.7822 7.09322 20.2292 8.27197 20.3737 9.38068C21.4548 9.45898 22.573 8.8325 23.2704 8.01232Z" fill="black"/>
<path d="M43.7166 24.1976H41.9794L41.0262 21.2136H37.721L36.8132 24.1976H35.1213L38.3977 14.0338H40.4196L43.7166 24.1976ZM40.7415 19.9606L39.8791 17.3064C39.7883 17.0343 39.615 16.3955 39.3674 15.3898H39.3385C39.2395 15.8226 39.0744 16.4615 38.8557 17.3064L38.0098 19.9606H40.7415ZM52.1265 20.4429C52.1265 21.6876 51.7879 22.6727 51.1112 23.3981C50.5044 24.041 49.7494 24.3625 48.8498 24.3625C47.8759 24.3625 47.1788 24.0163 46.7539 23.3239V27.1693H45.1238V19.2765C45.1238 18.4934 45.1033 17.6897 45.062 16.8695H46.4976L46.5889 18.0318H46.6173C47.1623 17.158 47.9876 16.717 49.0932 16.717C49.9598 16.717 50.6819 17.0591 51.2598 17.7433C51.8373 18.4275 52.1265 19.3301 52.1265 20.4429ZM50.4675 20.5047C50.4675 19.7917 50.3064 19.2023 49.9848 18.7407C49.6337 18.2585 49.1595 18.0194 48.5651 18.0194C48.1651 18.0194 47.7976 18.1554 47.4715 18.4192C47.1459 18.6871 46.931 19.0375 46.8322 19.4661C46.7868 19.6268 46.7619 19.7958 46.7579 19.9606V21.1848C46.7579 21.7165 46.923 22.1657 47.2491 22.5366C47.5747 22.9035 48.0001 23.0889 48.5237 23.0889C49.1386 23.0889 49.6173 22.8499 49.9598 22.38C50.294 21.9019 50.4675 21.2795 50.4675 20.5047ZM60.5689 20.4429C60.5689 21.6876 60.2308 22.6727 59.5536 23.3981C58.9472 24.041 58.1922 24.3625 57.2926 24.3625C56.3188 24.3625 55.6212 24.0163 55.1963 23.3239V27.1693H53.5662V19.2765C53.5662 18.4934 53.5457 17.6897 53.5043 16.8695H54.9405L55.0312 18.0318H55.0602C55.6047 17.158 56.43 16.717 57.536 16.717C58.4027 16.717 59.1247 17.0591 59.7022 17.7433C60.2761 18.4275 60.5689 19.3301 60.5689 20.4429ZM58.9058 20.5047C58.9058 19.7917 58.7452 19.2023 58.4231 18.7407C58.0726 18.2585 57.5979 18.0194 57.0039 18.0194C56.6035 18.0194 56.236 18.1554 55.9059 18.4192C55.5802 18.6871 55.3654 19.0375 55.2666 19.4661C55.2168 19.668 55.1883 19.8329 55.1883 19.9606V21.1848C55.1883 21.7165 55.3533 22.1657 55.679 22.5366C56.0051 22.9035 56.43 23.0889 56.9585 23.0889C57.5729 23.0889 58.0516 22.8499 58.3942 22.38C58.7368 21.9019 58.9058 21.2795 58.9058 20.5047ZM70.0061 21.3496C70.0061 22.2152 69.7049 22.92 69.1025 23.4599C68.4422 24.0534 67.5137 24.3501 66.3294 24.3501C65.2359 24.3501 64.3572 24.1399 63.6925 23.7154L64.068 22.3594C64.7821 22.7839 65.57 22.9941 66.4242 22.9941C67.039 22.9941 67.5177 22.854 67.8603 22.5778C68.2029 22.3017 68.3759 21.9308 68.3759 21.4692C68.3759 21.057 68.2318 20.7108 67.9511 20.4264C67.6703 20.1461 67.2041 19.8823 66.5483 19.6433C64.7656 18.9797 63.874 18.007 63.874 16.7335C63.874 15.9009 64.1877 15.2168 64.819 14.6851C65.4463 14.1534 66.28 13.8855 67.3198 13.8855C68.2443 13.8855 69.0157 14.0462 69.6306 14.3677L69.2221 15.6949C68.6442 15.3816 67.9964 15.2291 67.2659 15.2291C66.6925 15.2291 66.2387 15.3692 65.9165 15.6495C65.6443 15.9009 65.5081 16.2059 65.5081 16.5686C65.5081 16.9684 65.6652 17.3023 65.9788 17.5619C66.2511 17.801 66.7418 18.0648 67.4559 18.345C68.3306 18.6995 68.9743 19.1075 69.3872 19.5815C69.7996 20.0555 70.0061 20.6448 70.0061 21.3496ZM75.4116 18.0936H73.6124V21.6505C73.6124 22.5573 73.9301 23.0065 74.5658 23.0065C74.8586 23.0065 75.0979 22.9818 75.2919 22.9323L75.3373 24.1688C75.0156 24.2883 74.5947 24.3501 74.0706 24.3501C73.4269 24.3501 72.9232 24.1523 72.5602 23.7608C72.1972 23.3692 72.0157 22.7097 72.0157 21.7865V18.0936H70.947V16.8736H72.0157V15.53L73.6168 15.0478V16.8736H75.4156L75.4116 18.0936ZM83.5034 20.4759C83.5034 21.6011 83.1817 22.5284 82.5379 23.2497C81.8653 23.9957 80.9701 24.3666 79.8516 24.3666C78.7745 24.3666 77.9163 24.0081 77.2766 23.2991C76.6373 22.5861 76.3196 21.6835 76.3196 20.5995C76.3196 19.462 76.6497 18.5346 77.3099 17.8092C77.9702 17.0838 78.8573 16.7252 79.9753 16.7252C81.0524 16.7252 81.9191 17.0838 82.5709 17.7968C83.1897 18.4851 83.5034 19.3795 83.5034 20.4759ZM81.8119 20.513C81.8119 19.8411 81.6673 19.2641 81.3741 18.786C81.032 18.2049 80.5448 17.9122 79.9095 17.9122C79.2573 17.9122 78.7541 18.2049 78.4155 18.786C78.1228 19.2682 77.9782 19.8535 77.9782 20.5459C77.9782 21.2177 78.1228 21.7948 78.4155 22.277C78.7665 22.8581 79.2617 23.1508 79.897 23.1508C80.5203 23.1508 81.007 22.854 81.3621 22.2646C81.6633 21.7659 81.8119 21.1848 81.8119 20.513ZM88.8061 18.3038C88.6366 18.2749 88.4635 18.2585 88.29 18.2585C87.7165 18.2585 87.2752 18.4728 86.9616 18.9056C86.6893 19.2888 86.5531 19.7711 86.5531 20.3522V24.1976H84.923V19.1776C84.923 18.4068 84.9106 17.6402 84.8777 16.8695H86.2973L86.3547 18.2708H86.4001C86.5736 17.7886 86.8419 17.4012 87.2174 17.1086C87.5555 16.853 87.9724 16.717 88.3972 16.717C88.5503 16.717 88.682 16.7294 88.8061 16.7459V18.3038ZM96.0975 20.1874C96.1015 20.4347 96.0806 20.682 96.0397 20.9251H91.1458C91.1623 21.6505 91.4016 22.2028 91.8554 22.5861C92.2679 22.9282 92.8004 23.0972 93.4566 23.0972C94.1827 23.0972 94.8429 22.9818 95.4373 22.751L95.6931 23.8803C94.9995 24.1811 94.1787 24.3337 93.2337 24.3337C92.0948 24.3337 91.2032 23.9998 90.5514 23.3321C89.9037 22.6644 89.5776 21.7659 89.5776 20.6407C89.5776 19.5361 89.8788 18.617 90.4856 17.8834C91.1169 17.1003 91.9751 16.7087 93.0522 16.7087C94.1084 16.7087 94.9088 17.1003 95.4538 17.8834C95.8787 18.5058 96.0975 19.2723 96.0975 20.1874ZM94.5417 19.7669C94.5542 19.2847 94.447 18.8685 94.2241 18.514C93.9433 18.0606 93.506 17.834 92.9241 17.834C92.392 17.834 91.9587 18.0565 91.6241 18.4975C91.3518 18.8478 91.1912 19.2723 91.1414 19.7629L94.5417 19.7669Z" fill="black"/>
<path d="M37.2505 10.4439C36.7966 10.4439 36.4046 10.4233 36.0786 10.3862V5.46919C36.5367 5.39912 36.9988 5.36201 37.461 5.36614C39.3302 5.36614 40.1927 6.28524 40.1927 7.78137C40.1885 9.5083 39.1735 10.4439 37.2505 10.4439ZM37.527 5.99676C37.2753 5.99676 37.0607 6.01324 36.8833 6.0503V9.78448C36.9782 9.80096 37.1639 9.80505 37.4238 9.80505C38.6494 9.80505 39.3467 9.10854 39.3467 7.80612C39.3426 6.63972 38.7113 5.99676 37.527 5.99676ZM42.8748 10.481C41.8226 10.481 41.1376 9.69378 41.1376 8.6263C41.1376 7.51345 41.835 6.72215 42.9326 6.72215C43.9724 6.72215 44.6699 7.47226 44.6699 8.56858C44.6699 9.69378 43.9518 10.481 42.8748 10.481ZM42.9037 7.3074C42.326 7.3074 41.9546 7.84731 41.9546 8.60568C41.9546 9.34757 42.3343 9.88748 42.8955 9.88748C43.4608 9.88748 43.8363 9.31046 43.8363 8.5892C43.8404 7.85558 43.469 7.3074 42.9037 7.3074ZM50.6778 6.79632L49.5514 10.3986H48.8168L48.3506 8.83649C48.2349 8.45317 48.1361 8.06577 48.0618 7.67423H48.0454C47.9876 8.06577 47.8759 8.46144 47.7562 8.83649L47.261 10.3986H46.5185L45.4579 6.79632H46.2831L46.6916 8.50677C46.7868 8.91479 46.8691 9.29811 46.9354 9.66494H46.9518C47.0097 9.35992 47.1084 8.98487 47.249 8.51503L47.7607 6.79632H48.4124L48.9036 8.47793C49.0233 8.88595 49.118 9.28576 49.1923 9.66494H49.2128C49.2666 9.29398 49.3449 8.90244 49.4566 8.47793L49.8939 6.79632H50.6778ZM54.8332 10.3986H54.0328V8.32955C54.0328 7.69071 53.789 7.37334 53.3063 7.37334C52.832 7.37334 52.5059 7.78137 52.5059 8.25534V10.3986H51.7056V7.82669C51.7056 7.50937 51.6971 7.16728 51.6766 6.79632H52.3823L52.4192 7.35272H52.4396C52.6545 6.96945 53.0919 6.72215 53.583 6.72215C54.338 6.72215 54.8372 7.29918 54.8372 8.24298L54.8332 10.3986ZM57.0408 10.3986H56.2404V5.14355H57.0408V10.3986ZM59.9664 10.481C58.9142 10.481 58.2291 9.69378 58.2291 8.6263C58.2291 7.51345 58.9267 6.72215 60.0243 6.72215C61.064 6.72215 61.7616 7.47226 61.7616 8.56858C61.7616 9.69378 61.0395 10.481 59.9664 10.481ZM59.9953 7.3074C59.4174 7.3074 59.0464 7.84731 59.0464 8.60568C59.0464 9.34757 59.4259 9.88748 59.9869 9.88748C60.5524 9.88748 60.9279 9.31046 60.9279 8.5892C60.9279 7.85558 60.5608 7.3074 59.9953 7.3074ZM64.9221 10.3986L64.8643 9.98227H64.8438C64.6005 10.3161 64.2415 10.4769 63.7877 10.4769C63.1394 10.4769 62.6816 10.0235 62.6816 9.41765C62.6816 8.52738 63.4531 8.0699 64.79 8.0699V8.00395C64.79 7.52994 64.5386 7.29091 64.0435 7.29091C63.6884 7.29091 63.3748 7.38161 63.1025 7.55882L62.9415 7.03126C63.276 6.82516 63.6924 6.71802 64.1796 6.71802C65.1201 6.71802 65.5988 7.21261 65.5988 8.20588V9.53305C65.5988 9.89575 65.6153 10.1801 65.6527 10.3944L64.9221 10.3986ZM64.8109 8.60568C63.9193 8.60568 63.474 8.82001 63.474 9.33108C63.474 9.71027 63.7049 9.89575 64.0226 9.89575C64.4314 9.89575 64.8109 9.5866 64.8109 9.16209V8.60568ZM69.4819 10.3986L69.445 9.82154H69.4241C69.1932 10.2584 68.8052 10.481 68.2647 10.481C67.394 10.481 66.7502 9.71853 66.7502 8.64279C66.7502 7.51759 67.4189 6.72215 68.3305 6.72215C68.8137 6.72215 69.1558 6.88288 69.3458 7.21261H69.3622V5.14355H70.1626V9.42587C70.1626 9.77208 70.1711 10.1018 70.1915 10.3944H69.4819V10.3986ZM69.3662 8.28009C69.3662 7.77723 69.0321 7.3445 68.5205 7.3445C67.9261 7.3445 67.5631 7.87206 67.5631 8.60982C67.5631 9.33521 67.9386 9.83394 68.504 9.83394C69.0072 9.83394 69.3662 9.39703 69.3662 8.87773V8.28009ZM75.2549 10.481C74.2027 10.481 73.5176 9.69378 73.5176 8.6263C73.5176 7.51345 74.2147 6.72215 75.3127 6.72215C76.3525 6.72215 77.0496 7.47226 77.0496 8.56858C77.0496 9.69378 76.332 10.481 75.2549 10.481ZM75.2838 7.3074C74.7059 7.3074 74.3344 7.84731 74.3344 8.60568C74.3344 9.34757 74.7144 9.88748 75.2754 9.88748C75.8408 9.88748 76.2163 9.31046 76.2163 8.5892C76.2203 7.85558 75.8488 7.3074 75.2838 7.3074ZM81.362 10.3986H80.5612V8.32955C80.5612 7.69071 80.3178 7.37334 79.8351 7.37334C79.3604 7.37334 79.0348 7.78137 79.0348 8.25534V10.3986H78.2339V7.82669C78.2339 7.50937 78.2259 7.16728 78.205 6.79632H78.9106L78.948 7.35272H78.9685C79.1833 6.96945 79.6207 6.72215 80.1114 6.72215C80.8668 6.72215 81.366 7.29918 81.366 8.24298V10.3986H81.362ZM86.7511 7.39805H85.8679V9.1456C85.8679 9.59073 86.0205 9.81332 86.3342 9.81332C86.4743 9.81332 86.594 9.79683 86.6892 9.77621L86.7097 10.3821C86.5531 10.4398 86.3466 10.4728 86.0868 10.4728C85.4551 10.4728 85.0756 10.1266 85.0756 9.21154V7.39396H84.5475V6.79219H85.0756V6.13273L85.8639 5.8937V6.79219H86.7471L86.7511 7.39805ZM90.9972 10.3986H90.1964V8.34603C90.1964 7.70307 89.953 7.37747 89.4703 7.37747C89.0534 7.37747 88.6699 7.65774 88.6699 8.23063V10.4027H87.8691V5.14355H88.6699V7.3074H88.6864C88.9382 6.91586 89.3052 6.72215 89.7715 6.72215C90.5349 6.72215 91.0012 7.31562 91.0012 8.25534L90.9972 10.3986ZM95.342 8.79117H92.9365C92.9529 9.47124 93.4027 9.85864 94.0714 9.85864C94.426 9.85864 94.7561 9.80096 95.0448 9.68965L95.169 10.246C94.8264 10.3944 94.426 10.4686 93.9597 10.4686C92.8333 10.4686 92.165 9.75559 92.165 8.65514C92.165 7.55056 92.8497 6.72215 93.869 6.72215C94.789 6.72215 95.367 7.40218 95.367 8.4326C95.375 8.548 95.367 8.67163 95.342 8.79117ZM94.6075 8.21828C94.6075 7.66183 94.3272 7.27029 93.8156 7.27029C93.3533 7.27029 92.9903 7.67009 92.9405 8.21828H94.6075Z" fill="black"/>
</g>
<defs>
<clipPath id="clip0_1_1939">
<rect width="109" height="31.995" rx="4.33831" fill="white"/>
</clipPath>
</defs>
</svg>
