<svg width="109" height="32" viewBox="0 0 109 32" fill="none" xmlns="http://www.w3.org/2000/svg">
<g clip-path="url(#clip0_1_1925)">
<path d="M106.361 0.444336H2.22448C1.24164 0.444336 0.444885 1.24015 0.444885 2.22184V29.7731C0.444885 30.7548 1.24164 31.5506 2.22448 31.5506H106.361C107.344 31.5506 108.14 30.7548 108.14 29.7731V2.22184C108.14 1.24015 107.344 0.444336 106.361 0.444336Z" fill="white" stroke="white" stroke-width="1.08458"/>
<path d="M38.9804 8.37879C38.9804 8.99105 38.8272 9.52679 38.4441 9.90944C37.9843 10.3686 37.448 10.5982 36.7584 10.5982C36.0688 10.5982 35.5324 10.3686 35.0727 9.90944C34.613 9.45022 34.3831 8.91453 34.3831 8.22575C34.3831 7.53697 34.613 7.00127 35.0727 6.54205C35.5324 6.08288 36.0688 5.85327 36.7584 5.85327C37.0649 5.85327 37.3714 5.92979 37.6778 6.08288C37.9843 6.23592 38.2142 6.38901 38.3674 6.61857L37.9843 7.00123C37.6778 6.61857 37.2947 6.46553 36.7584 6.46553C36.2986 6.46553 35.8389 6.61857 35.5324 7.00123C35.1493 7.30736 34.9961 7.76657 34.9961 8.30227C34.9961 8.83801 35.1493 9.29718 35.5324 9.60331C35.9155 9.90944 36.2986 10.139 36.7584 10.139C37.2947 10.139 37.6778 9.98596 38.061 9.60331C38.2908 9.3737 38.4441 9.06757 38.4441 8.68492H36.7584V8.14923H38.9804C38.9804 8.14923 38.9804 8.22575 38.9804 8.37879Z" fill="black" stroke="black" stroke-width="0.108458" stroke-miterlimit="10"/>
<path d="M42.5054 6.46553H40.4366V7.91962H42.3521V8.45536H40.4366V9.90944H42.5054V10.4451H39.8236V5.85327H42.5054V6.46553Z" fill="black" stroke="black" stroke-width="0.108458" stroke-miterlimit="10"/>
<path d="M45.0339 10.4451H44.4207V6.38901H43.1182V5.85327H46.3361V6.38901H45.0339V10.4451Z" fill="black" stroke="black" stroke-width="0.108458" stroke-miterlimit="10"/>
<path d="M48.5584 10.4451V5.85327H49.171V10.4451H48.5584Z" fill="black" stroke="black" stroke-width="0.108458" stroke-miterlimit="10"/>
<path d="M51.7763 10.4451H51.1637V6.38901H49.861V5.85327H53.0024V6.38901H51.6998V10.4451H51.7763Z" fill="black" stroke="black" stroke-width="0.108458" stroke-miterlimit="10"/>
<path d="M59.0553 9.90944C58.5957 10.3686 58.0592 10.5982 57.3696 10.5982C56.68 10.5982 56.1439 10.3686 55.6839 9.90944C55.2243 9.45022 54.9943 8.91453 54.9943 8.22575C54.9943 7.53697 55.2243 7.00127 55.6839 6.54205C56.1439 6.08288 56.68 5.85327 57.3696 5.85327C58.0592 5.85327 58.5957 6.08288 59.0553 6.54205C59.5149 7.00127 59.7449 7.53697 59.7449 8.22575C59.7449 8.83801 59.5149 9.45022 59.0553 9.90944ZM56.1439 9.52679C56.4504 9.83292 56.91 10.0625 57.3696 10.0625C57.8296 10.0625 58.2892 9.90944 58.5957 9.52679C58.9022 9.22066 59.1318 8.76149 59.1318 8.22575C59.1318 7.69001 58.9788 7.23083 58.5957 6.9247C58.2892 6.61857 57.8296 6.38901 57.3696 6.38901C56.91 6.38901 56.4504 6.54205 56.1439 6.9247C55.8373 7.23083 55.6073 7.69001 55.6073 8.22575C55.6073 8.68492 55.7608 9.14414 56.1439 9.52679Z" fill="black" stroke="black" stroke-width="0.108458" stroke-miterlimit="10"/>
<path d="M60.588 10.4451V5.85327H61.2776L63.4994 9.45022V8.53188V5.85327H64.1125V10.4451H63.4994L61.1241 6.69514V7.61349V10.4451H60.588Z" fill="black" stroke="black" stroke-width="0.108458" stroke-miterlimit="10"/>
<path d="M54.8408 17.18C53.002 17.18 51.5463 18.5575 51.5463 20.4708C51.5463 22.3076 53.002 23.7616 54.8408 23.7616C56.6795 23.7616 58.1357 22.3841 58.1357 20.4708C58.1357 18.5575 56.6795 17.18 54.8408 17.18ZM54.8408 22.3841C53.8447 22.3841 53.002 21.5423 53.002 20.3943C53.002 19.2463 53.8447 18.4045 54.8408 18.4045C55.8369 18.4045 56.6796 19.1698 56.6796 20.3943C56.6796 21.6188 55.8369 22.3841 54.8408 22.3841ZM47.7149 17.18C45.8761 17.18 44.4203 18.5575 44.4203 20.4708C44.4203 22.3076 45.8761 23.7616 47.7149 23.7616C49.5541 23.7616 51.0098 22.3841 51.0098 20.4708C51.0098 18.5575 49.5541 17.18 47.7149 17.18ZM47.7149 22.3841C46.7192 22.3841 45.8761 21.5423 45.8761 20.3943C45.8761 19.2463 46.7192 18.4045 47.7149 18.4045C48.711 18.4045 49.5541 19.1698 49.5541 20.3943C49.5541 21.6188 48.711 22.3841 47.7149 22.3841ZM39.2101 18.1749V19.5524H42.5048C42.4282 20.3178 42.1217 20.93 41.7386 21.3126C41.2789 21.7718 40.5126 22.3076 39.2101 22.3076C37.1413 22.3076 35.6089 20.7004 35.6089 18.6341C35.6089 16.5677 37.2179 14.9606 39.2101 14.9606C40.2828 14.9606 41.1256 15.4197 41.7386 15.9555L42.7347 14.9606C41.8918 14.1953 40.8191 13.583 39.2867 13.583C36.5283 13.583 34.1531 15.879 34.1531 18.6341C34.1531 21.3892 36.5283 23.6851 39.2867 23.6851C40.8191 23.6851 41.8918 23.226 42.8113 22.231C43.7308 21.3126 44.0372 20.0116 44.0372 19.0167C44.0372 18.7106 44.0372 18.4045 43.9606 18.1749H39.2101ZM73.9963 19.2463C73.6898 18.481 72.9232 17.18 71.2379 17.18C69.5522 17.18 68.173 18.481 68.173 20.4708C68.173 22.3076 69.5522 23.7616 71.391 23.7616C72.8467 23.7616 73.7663 22.8433 74.0728 22.3076L73.0002 21.5423C72.6171 22.078 72.1571 22.4606 71.391 22.4606C70.6249 22.4606 70.1648 22.1545 69.7818 21.4657L74.1494 19.629L73.9963 19.2463ZM69.5522 20.3178C69.5522 19.0933 70.5483 18.4045 71.2379 18.4045C71.774 18.4045 72.3106 18.7106 72.4636 19.0933L69.5522 20.3178ZM65.9508 23.4555H67.4065V13.8891H65.9508V23.4555ZM63.6524 17.8687C63.2689 17.4861 62.6563 17.1034 61.8897 17.1034C60.281 17.1034 58.7483 18.5575 58.7483 20.3943C58.7483 22.231 60.2045 23.6086 61.8897 23.6086C62.6563 23.6086 63.2689 23.226 63.5755 22.8433H63.6524V23.3025C63.6524 24.5269 62.9628 25.2157 61.8897 25.2157C61.0471 25.2157 60.434 24.6035 60.281 24.0678L59.0549 24.6035C59.4379 25.4453 60.3575 26.5168 61.9667 26.5168C63.6524 26.5168 65.0316 25.5219 65.0316 23.1494V17.333H63.6524V17.8687ZM61.9667 22.3841C60.9706 22.3841 60.1275 21.5423 60.1275 20.3943C60.1275 19.2463 60.9706 18.4045 61.9667 18.4045C62.9628 18.4045 63.729 19.2463 63.729 20.3943C63.729 21.5423 62.9628 22.3841 61.9667 22.3841ZM80.6622 13.8891H77.2143V23.4555H78.67V19.8586H80.6622C82.271 19.8586 83.8036 18.7106 83.8036 16.8739C83.8036 15.0371 82.271 13.8891 80.6622 13.8891ZM80.7387 18.5575H78.67V15.2667H80.7387C81.8114 15.2667 82.4245 16.1851 82.4245 16.8739C82.3479 17.6392 81.7349 18.5575 80.7387 18.5575ZM89.5504 17.18C88.4773 17.18 87.4046 17.6392 87.0216 18.6341L88.3242 19.1698C88.6308 18.6341 89.0904 18.481 89.6269 18.481C90.393 18.481 91.0826 18.9402 91.1591 19.7055V19.782C90.9296 19.629 90.3165 19.3994 89.7034 19.3994C88.3242 19.3994 86.9451 20.1647 86.9451 21.5423C86.9451 22.8433 88.0942 23.6851 89.3204 23.6851C90.3165 23.6851 90.7761 23.226 91.1591 22.7668H91.2357V23.5321H92.6148V19.8586C92.4618 18.0984 91.1591 17.18 89.5504 17.18ZM89.3969 22.3841C88.9373 22.3841 88.2477 22.1545 88.2477 21.5423C88.2477 20.777 89.0904 20.5473 89.78 20.5473C90.393 20.5473 90.6996 20.7004 91.0826 20.8535C90.9296 21.7719 90.163 22.3841 89.3969 22.3841ZM97.442 17.333L95.8332 21.4657H95.7567L94.071 17.333H92.5383L95.0671 23.1494L93.611 26.3637H95.0671L98.9747 17.333H97.442ZM84.5698 23.4555H86.0255V13.8891H84.5698V23.4555Z" fill="black"/>
<path d="M10.2475 25.3688C9.941 25.2158 9.78778 24.8331 9.78778 24.4505C9.78778 24.3739 9.78778 24.2209 9.78778 24.1443C9.78778 18.481 9.78778 12.8177 9.78778 7.23093C9.78778 6.9248 9.86439 6.69524 9.941 6.3891C10.0177 6.23602 10.1709 6.08297 10.3242 5.92993C13.6188 9.22075 16.8369 12.5116 20.055 15.8024C16.7603 18.8637 13.5422 22.078 10.2475 25.3688Z" fill="#547DBF"/>
<path d="M23.2729 12.4351C22.3534 13.3535 21.3574 14.2718 20.4379 15.2667C17.3731 12.1289 14.2316 8.99116 11.1667 5.85338C11.1667 5.85338 11.1667 5.77686 11.2434 5.77686C15.2277 7.99624 19.212 10.2157 23.2729 12.4351Z" fill="#30A851"/>
<path d="M11.1667 25.369C14.2316 22.3078 17.3731 19.2466 20.4379 16.1853C21.2807 17.0271 22.2002 17.869 23.1963 18.7873C19.212 21.0068 15.2277 23.2262 11.2434 25.369H11.1667Z" fill="#EB4335"/>
<path d="M23.7329 18.481C22.7369 17.5627 21.8174 16.6443 20.8214 15.7259C21.8174 14.731 22.8135 13.7361 23.8096 12.7412C24.116 12.8943 24.4225 13.0473 24.729 13.2769C25.4952 13.7361 26.3381 14.1188 27.1043 14.5779C27.3342 14.6545 27.4874 14.8076 27.6406 15.0371C27.9471 15.4198 27.9471 15.8025 27.6406 16.1851C27.4874 16.3382 27.3342 16.4912 27.1043 16.5678C26.0316 17.2566 24.8823 17.8688 23.7329 18.481Z" fill="#FABC13"/>
</g>
<defs>
<clipPath id="clip0_1_1925">
<rect width="109" height="31.995" rx="4.33831" fill="white"/>
</clipPath>
</defs>
</svg>
