<svg width="71" height="32" viewBox="0 0 71 32" fill="none" xmlns="http://www.w3.org/2000/svg">
<path d="M27.1455 21.5018C26.3331 27.2549 19.5983 31.9188 12.2683 31.9188L13.7392 21.5018H27.1455Z" fill="#7CB0ED"/>
<path d="M28.7878 9.87119C29.5577 4.41948 24.6492 0 17.8246 0H16.7754L15.3993 9.74547C15.274 10.6327 16.0728 11.3519 17.1834 11.3519H26.7252C27.7489 11.3519 28.6724 10.6889 28.7878 9.87119Z" fill="#5D9BE5"/>
<path fill-rule="evenodd" clip-rule="evenodd" d="M16.7754 0C9.21705 0 2.4172 4.76351 1.58746 10.6396L0.0850858 21.2792C-0.744654 27.1553 4.70991 31.9188 12.2683 31.9188L16.7754 0Z" fill="#5D9BE5"/>
<path fill-rule="evenodd" clip-rule="evenodd" d="M16.0195 5.35422C16.4338 2.41998 13.5381 -0.0687971 10.0242 1.34016C5.52448 3.1444 2.15161 6.64476 1.58363 10.6671L0.0831959 21.293C-0.745471 27.1614 4.70991 31.9188 12.2683 31.9188L16.0195 5.35422Z" fill="#7CB0ED"/>
<path d="M9.00136 10.5505H15.2856L13.9843 19.7656H7.70013L9.00136 10.5505Z" fill="url(#paint0_linear_1_1617)"/>
<path d="M18.9077 30.6195C23.247 29.0659 26.4568 26.3798 26.9408 22.9525L27.1624 21.383C27.2885 20.4897 26.4904 19.7656 25.3798 19.7656L13.9843 19.7656L13.01 26.6664C12.5896 29.6439 15.3773 31.8834 18.9077 30.6195Z" fill="url(#paint1_linear_1_1617)"/>
<path d="M27.5088 10.0281C28.2609 4.70242 22.9587 0.590191 16.2254 1.27703L14.8908 1.41317C15.9385 3.71757 14.9812 6.45828 12.4898 8.28751L9.08764 10.7855C8.79942 10.9971 8.93775 11.3518 9.30848 11.3518H25.6586C26.5772 11.3518 27.4056 10.7592 27.5088 10.0281Z" fill="#5D9BE5"/>
<path d="M18.8771 30.3328C23.2501 28.8416 26.4812 26.2069 26.9506 22.8825L27.1986 21.126C27.3013 20.3985 26.4834 19.8087 25.3717 19.8087H13.9653L12.9112 27.2735C12.5687 29.6987 15.4622 31.4973 18.8771 30.3328Z" fill="#66A1E8"/>
<path d="M16.2439 19.8088H8.90124L7.29907 31.163C10.0631 32.0405 11.6474 32.2061 14.5981 31.7624L16.2439 19.8088Z" fill="url(#paint2_linear_1_1617)" fill-opacity="0.4"/>
<path d="M35.6776 23.3244C34.6806 23.3244 33.8062 23.0727 33.0545 22.5692C32.3099 22.0657 31.7522 21.392 31.3814 20.5481C31.0187 19.6971 30.9108 18.7574 31.0575 17.7291C31.1687 16.949 31.4133 16.2222 31.7912 15.5484C32.1701 14.8676 32.6416 14.2719 33.2057 13.7613C33.778 13.2437 34.4136 12.8394 35.1125 12.5487C35.8115 12.2579 36.533 12.1125 37.2771 12.1125C38.2741 12.1125 39.1448 12.3643 39.8894 12.8678C40.6411 13.3713 41.1983 14.0486 41.561 14.8996C41.9308 15.7506 42.0419 16.6937 41.8942 17.7291C41.7839 18.5021 41.5399 19.2255 41.162 19.8992C40.7841 20.5729 40.309 21.1686 39.7367 21.6863C39.1726 22.1969 38.5411 22.5975 37.8422 22.8883C37.1505 23.1791 36.429 23.3244 35.6776 23.3244ZM36.0479 20.7289C36.5753 20.7289 37.0682 20.5906 37.5267 20.314C37.9852 20.0375 38.366 19.6722 38.6691 19.2184C38.9795 18.7645 39.1732 18.2681 39.25 17.7291C39.329 17.176 39.2744 16.6725 39.0863 16.2186C38.9064 15.7576 38.6225 15.3924 38.2347 15.1229C37.8552 14.8464 37.4125 14.7081 36.9068 14.7081C36.3867 14.7081 35.8973 14.8464 35.4389 15.1229C34.9804 15.3995 34.5954 15.7683 34.284 16.2292C33.9727 16.6902 33.7785 17.1902 33.7016 17.7291C33.6217 18.2894 33.6758 18.7964 33.8639 19.2503C34.052 19.7041 34.3363 20.0658 34.7169 20.3353C35.1057 20.5977 35.5494 20.7289 36.0479 20.7289Z" fill="#5D9BE5"/>
<path d="M42.1834 23.0479L43.6901 12.4104H46.3343L46.21 13.3571C46.6331 12.9742 47.1168 12.6728 47.6611 12.4529C48.2064 12.226 48.7753 12.1125 49.3677 12.1125C49.7651 12.1125 50.1543 12.1693 50.5355 12.2827L49.1218 14.8996C48.8625 14.7932 48.5955 14.74 48.321 14.74C47.8948 14.74 47.49 14.8428 47.1066 15.0485C46.7315 15.247 46.4144 15.5201 46.1553 15.8676C45.9045 16.208 45.7492 16.5874 45.6895 17.0058L44.8276 23.0479H42.1834Z" fill="#5D9BE5"/>
<path d="M59.8935 15.0059L53.6656 20.4523H59.1165L58.7462 23.0479H49.4916L49.8619 20.4523L56.0898 15.0059H50.6389L51.0092 12.4104H60.2637L59.8935 15.0059Z" fill="#5D9BE5"/>
<path d="M64.7345 23.3244C63.7375 23.3244 62.8632 23.0727 62.1114 22.5692C61.3669 22.0657 60.8097 21.3884 60.4398 20.5374C60.0772 19.6864 59.9692 18.7468 60.1159 17.7185C60.2262 16.9455 60.4702 16.2222 60.8481 15.5484C61.227 14.8676 61.6985 14.2719 62.2626 13.7613C62.8349 13.2437 63.4706 12.8394 64.1695 12.5487C64.8684 12.2579 65.5899 12.1125 66.334 12.1125C67.1793 12.1125 67.927 12.2898 68.5772 12.6444C69.2356 12.9919 69.767 13.4706 70.1712 14.0805C70.5755 14.6904 70.834 15.3853 70.9466 16.1654C71.0593 16.9455 70.9935 17.761 70.7493 18.612H62.8276C62.8721 19.0092 62.9872 19.3673 63.1729 19.6864C63.3595 19.9985 63.6162 20.2502 63.9429 20.4417C64.2706 20.6261 64.6579 20.7218 65.1048 20.7289C65.5662 20.736 66.0004 20.6296 66.4074 20.4098C66.8227 20.1828 67.1841 19.8779 67.4915 19.4949L70.1019 20.1119C69.5266 21.0551 68.7589 21.8281 67.7988 22.4309C66.8396 23.0266 65.8182 23.3244 64.7345 23.3244ZM63.0187 16.6654H68.3504C68.3316 16.2399 68.2164 15.8569 68.0049 15.5165C67.8016 15.169 67.5268 14.8925 67.1805 14.6868C66.8342 14.4812 66.4443 14.3783 66.0108 14.3783C65.5773 14.3783 65.1617 14.4812 64.7639 14.6868C64.3671 14.8854 64.0139 15.1584 63.7042 15.5059C63.4028 15.8463 63.1743 16.2328 63.0187 16.6654Z" fill="#5D9BE5"/>
<defs>
<linearGradient id="paint0_linear_1_1617" x1="35.5" y1="0" x2="35.5" y2="27" gradientUnits="userSpaceOnUse">
<stop stop-color="#66A8F7"/>
<stop offset="1" stop-color="#7CB0ED" stop-opacity="0"/>
</linearGradient>
<linearGradient id="paint1_linear_1_1617" x1="35.5" y1="-2.24725" x2="35.5" y2="32.0001" gradientUnits="userSpaceOnUse">
<stop stop-color="#7CB0ED"/>
<stop offset="0.9999" stop-color="#5D9BE5"/>
<stop offset="1" stop-color="#FF3E80"/>
</linearGradient>
<linearGradient id="paint2_linear_1_1617" x1="35.5" y1="0" x2="35.5" y2="27" gradientUnits="userSpaceOnUse">
<stop stop-color="#5D9BE5"/>
<stop offset="1" stop-color="#277EE4"/>
</linearGradient>
</defs>
</svg>
