<svg width="89" height="32" viewBox="0 0 89 32" fill="none" xmlns="http://www.w3.org/2000/svg">
<g clip-path="url(#clip0_1_1944)">
<rect width="89.0006" height="32" rx="4.35782" fill="white"/>
<path d="M42.0583 16.7181C42.0583 16.4617 42.151 16.2565 42.3364 16.0822C42.5219 15.9078 42.7382 15.8258 42.9957 15.8258C43.2635 15.8258 43.4901 15.9181 43.6653 16.0924C43.8404 16.2668 43.9331 16.4822 43.9331 16.7181C43.9331 16.9642 43.8404 17.1796 43.655 17.3437C43.4695 17.5181 43.2532 17.6001 42.9854 17.6001C42.7176 17.6001 42.5013 17.5181 42.3158 17.3437C42.151 17.1693 42.0583 16.9642 42.0583 16.7181ZM43.758 25.1078H42.2231V18.595H43.758V25.1078Z" fill="#2C2C2C"/>
<path d="M48.4346 23.9869C48.6612 23.9869 48.9187 23.9356 49.1968 23.833C49.475 23.7304 49.7222 23.5869 49.9591 23.4125V24.8381C49.7119 24.9817 49.4338 25.0843 49.1247 25.1561C48.8157 25.2279 48.4655 25.2689 48.0946 25.2689C47.1367 25.2689 46.3538 24.9612 45.746 24.3561C45.1383 23.751 44.8396 22.9715 44.8396 22.0381C44.8396 20.992 45.1486 20.1304 45.7666 19.4535C46.3847 18.7766 47.25 18.4381 48.3831 18.4381C48.6715 18.4381 48.9599 18.4792 49.2587 18.551C49.5574 18.6227 49.784 18.7151 49.9591 18.8074V20.274C49.7222 20.0997 49.475 19.9663 49.2277 19.874C48.9805 19.7817 48.723 19.7304 48.4655 19.7304C47.8577 19.7304 47.3736 19.9253 46.9925 20.3151C46.6216 20.7048 46.4362 21.2381 46.4362 21.9048C46.4362 22.5612 46.6113 23.074 46.9718 23.4433C47.3324 23.8125 47.8165 23.9869 48.4346 23.9869Z" fill="#2C2C2C"/>
<path d="M54.3379 18.4922C54.4615 18.4922 54.5748 18.5025 54.6675 18.5127C54.7602 18.5332 54.8529 18.5538 54.9147 18.5743V20.123C54.8323 20.0614 54.719 20.0102 54.5645 19.9589C54.41 19.9076 54.2245 19.8768 53.9979 19.8768C53.6168 19.8768 53.2975 20.0307 53.0399 20.3486C52.7824 20.6666 52.6485 21.1486 52.6485 21.8153V25.1076H51.1137V18.5948H52.6485V19.6204H52.6691C52.8133 19.2614 53.0193 18.9845 53.3078 18.7896C53.5962 18.5948 53.9361 18.4922 54.3379 18.4922Z" fill="#2C2C2C"/>
<path d="M54.9963 21.9458C54.9963 20.8689 55.3053 20.0176 55.9131 19.3817C56.5208 18.7561 57.3758 18.4381 58.4574 18.4381C59.4772 18.4381 60.2806 18.7458 60.8575 19.351C61.4344 19.9561 61.7228 20.7766 61.7228 21.8022C61.7228 22.8586 61.4137 23.6997 60.806 24.3253C60.1982 24.951 59.3639 25.2586 58.3132 25.2586C57.3037 25.2586 56.4899 24.9612 55.9028 24.3663C55.295 23.7817 54.9963 22.9715 54.9963 21.9458ZM56.6032 21.8945C56.6032 22.5715 56.7577 23.0945 57.0668 23.4535C57.3758 23.8125 57.8187 23.9869 58.3956 23.9869C58.9518 23.9869 59.3845 23.8125 59.6729 23.4535C59.9613 23.0945 60.1158 22.5612 60.1158 21.8535C60.1158 21.1561 59.9613 20.6228 59.6626 20.2638C59.3639 19.9048 58.9312 19.7304 58.3853 19.7304C57.8187 19.7304 57.3861 19.9151 57.0668 20.2945C56.7577 20.674 56.6032 21.1971 56.6032 21.8945Z" fill="#2C2C2C"/>
<path d="M64.01 20.3042C64.01 20.5196 64.0821 20.694 64.2161 20.8171C64.3603 20.9401 64.6693 21.094 65.1431 21.2889C65.7612 21.535 66.1938 21.8119 66.4411 22.1196C66.6883 22.4273 66.8119 22.7966 66.8119 23.2273C66.8119 23.8427 66.575 24.335 66.1011 24.7042C65.6273 25.0735 64.9886 25.2581 64.1851 25.2581C63.9173 25.2581 63.6186 25.2273 63.289 25.1555C62.9593 25.094 62.6812 25.0017 62.4546 24.9094V23.4017C62.7327 23.5966 63.0314 23.7504 63.3611 23.8632C63.6804 23.976 63.9791 24.0376 64.2367 24.0376C64.5869 24.0376 64.8444 23.9863 65.0092 23.894C65.174 23.8017 65.2564 23.6376 65.2564 23.4017C65.2564 23.1863 65.174 23.0119 64.9989 22.8683C64.8238 22.7248 64.5045 22.5504 64.0203 22.3658C63.4538 22.1299 63.052 21.8632 62.8151 21.5658C62.5782 21.2683 62.4546 20.8889 62.4546 20.4376C62.4546 19.853 62.6915 19.3709 63.1551 18.9914C63.6186 18.6119 64.2264 18.4273 64.9783 18.4273C65.2049 18.4273 65.4625 18.4478 65.7509 18.4991C66.0393 18.5504 66.2762 18.6119 66.4617 18.694V20.1504C66.2556 20.0171 66.0187 19.9042 65.7509 19.8017C65.4831 19.7094 65.2049 19.6581 64.9474 19.6581C64.659 19.6581 64.4221 19.7196 64.2676 19.8324C64.0924 19.9453 64.01 20.1094 64.01 20.3042Z" fill="#2C2C2C"/>
<path d="M67.4915 21.9458C67.4915 20.8689 67.8006 20.0176 68.4083 19.3817C69.0161 18.7561 69.871 18.4381 70.9526 18.4381C71.9724 18.4381 72.7759 18.7458 73.3528 19.351C73.9296 19.9561 74.218 20.7766 74.218 21.8022C74.218 22.8586 73.909 23.6997 73.3013 24.3253C72.6935 24.951 71.8591 25.2586 70.8084 25.2586C69.7989 25.2586 68.9852 24.9612 68.398 24.3663C67.7903 23.7817 67.4915 22.9715 67.4915 21.9458ZM69.0882 21.8945C69.0882 22.5715 69.2427 23.0945 69.5517 23.4535C69.8607 23.8125 70.3037 23.9869 70.8805 23.9869C71.4368 23.9869 71.8694 23.8125 72.1579 23.4535C72.4463 23.0945 72.6008 22.5612 72.6008 21.8535C72.6008 21.1561 72.4463 20.6228 72.1476 20.2638C71.8488 19.9048 71.4162 19.7304 70.8702 19.7304C70.3037 19.7304 69.871 19.9151 69.5517 20.2945C69.2427 20.674 69.0882 21.1971 69.0882 21.8945Z" fill="#2C2C2C"/>
<path d="M79.296 19.8529V23.1965C79.296 23.8939 79.4608 24.4068 79.7801 24.7555C80.0994 25.1042 80.5939 25.2683 81.2428 25.2683C81.4592 25.2683 81.6858 25.2478 81.9124 25.1965C82.139 25.1452 82.3038 25.1042 82.3965 25.0427V23.7709C82.3038 23.8324 82.1905 23.8837 82.0669 23.9247C81.9433 23.9657 81.83 23.9862 81.7476 23.9862C81.4386 23.9862 81.2016 23.9042 81.0574 23.7401C80.9132 23.576 80.8411 23.2888 80.8411 22.8888V19.8426H82.4068V18.5914H80.8514V16.6632L79.3063 17.135V18.6016H77.0092V17.8119C77.0092 17.4221 77.0916 17.1247 77.2667 16.9196C77.4418 16.7144 77.689 16.6221 78.0083 16.6221C78.1732 16.6221 78.3174 16.6426 78.4513 16.6837C78.5749 16.7247 78.6676 16.7657 78.7191 16.7965V15.4734C78.6058 15.4324 78.4822 15.4119 78.338 15.3914C78.1938 15.3709 78.0289 15.3606 77.8435 15.3606C77.1431 15.3606 76.5662 15.576 76.1233 16.017C75.6803 16.458 75.4537 17.0119 75.4537 17.6991V18.6016H74.3618V19.8529H75.4537V25.1144H77.0092V19.8529H79.296Z" fill="#2C2C2C"/>
<path d="M40.7399 16.0205V25.1076H39.1536V17.9897H39.133L36.3002 25.1076H35.2495L32.3447 17.9897H32.3241V25.1076H30.8613V16.0205H33.1275L35.7543 22.7589H35.7955L38.5664 16.0205H40.7399Z" fill="#2C2C2C"/>
<path d="M35.0236 12.0929C34.4776 12.4006 33.8596 12.5545 33.1694 12.5545C32.6441 12.5545 32.1805 12.4416 31.7685 12.2057C31.3667 11.9801 31.0474 11.6519 30.8311 11.2314C30.6148 10.8109 30.5015 10.3391 30.5015 9.81599C30.5015 9.26214 30.6251 8.75958 30.862 8.32881C31.0989 7.89804 31.4388 7.54932 31.8818 7.30317C32.3247 7.05701 32.8192 6.93394 33.3754 6.93394C33.6535 6.93394 33.9317 6.96471 34.2098 7.01599C34.4879 7.06727 34.7145 7.13906 34.8897 7.22112V8.04163C34.4776 7.76471 33.9523 7.63137 33.3136 7.63137C32.9325 7.63137 32.5926 7.72368 32.2835 7.90829C31.9745 8.09291 31.7376 8.34932 31.5728 8.66727C31.4079 8.99547 31.3255 9.36471 31.3255 9.77496C31.3255 10.4211 31.5007 10.9339 31.8406 11.3134C32.1805 11.6929 32.6544 11.8775 33.2518 11.8775C33.6329 11.8775 33.9729 11.8057 34.2613 11.6519V10.2468H33.0973V9.56983H35.0236V12.0929Z" fill="#2C2C2C"/>
<path d="M39.4634 10.7275H36.7646C36.7749 11.1173 36.8985 11.4147 37.1045 11.6301C37.3208 11.8352 37.5989 11.948 37.9492 11.948C38.4127 11.948 38.8144 11.8147 39.1647 11.548V12.2044C39.0102 12.307 38.8144 12.3993 38.5775 12.4609C38.3406 12.5224 38.0934 12.5532 37.8462 12.5532C37.259 12.5532 36.7955 12.3788 36.4761 12.0301C36.1568 11.6814 35.992 11.1891 35.992 10.5532C35.992 10.1634 36.0744 9.80445 36.2289 9.49675C36.3834 9.17881 36.61 8.93265 36.8882 8.75829C37.1663 8.58393 37.4856 8.49163 37.8256 8.49163C38.3303 8.49163 38.732 8.65573 39.0205 8.98393C39.3089 9.31214 39.4531 9.76342 39.4531 10.348V10.7275H39.4634ZM38.7114 10.1429C38.7114 9.80445 38.629 9.54804 38.4745 9.37368C38.32 9.19932 38.1037 9.10701 37.8153 9.10701C37.5577 9.10701 37.3311 9.19932 37.1354 9.38393C36.9397 9.56855 36.8264 9.82496 36.7646 10.1429H38.7114Z" fill="#2C2C2C"/>
<path d="M42.3886 12.421C42.3165 12.462 42.2238 12.4928 42.0898 12.5133C41.9662 12.5338 41.8529 12.5441 41.7499 12.5441C41.0288 12.5441 40.6683 12.1441 40.6683 11.3543V9.20048H40.0091V8.5851H40.6683V7.66202L41.4203 7.42612V8.57484H42.3783V9.19023H41.4203V11.221C41.4203 11.4774 41.4615 11.662 41.5439 11.7646C41.6263 11.8671 41.7705 11.9184 41.9868 11.9184C42.131 11.9184 42.265 11.8774 42.3783 11.7954V12.421H42.3886Z" fill="#2C2C2C"/>
<path d="M46.1173 7.21103C46.1173 7.33411 46.0761 7.43667 45.9834 7.52898C45.8906 7.62129 45.7773 7.66231 45.6434 7.66231C45.5095 7.66231 45.3962 7.62129 45.3035 7.52898C45.2108 7.44693 45.1696 7.33411 45.1696 7.20077C45.1696 7.06744 45.2211 6.95462 45.3138 6.87257C45.4065 6.79052 45.5198 6.73923 45.6434 6.73923C45.767 6.73923 45.8803 6.78026 45.973 6.87257C46.0761 6.97513 46.1173 7.0777 46.1173 7.21103ZM46.0143 12.4623H45.2623V8.58539H46.0143V12.4623Z" fill="#2C2C2C"/>
<path d="M49.2792 12.421C49.2071 12.462 49.1144 12.4928 48.9805 12.5133C48.8569 12.5338 48.7436 12.5441 48.6406 12.5441C47.9195 12.5441 47.559 12.1441 47.559 11.3543V9.20048H46.8997V8.5851H47.559V7.66202L48.3109 7.42612V8.57484H49.2689V9.19023H48.3109V11.221C48.3109 11.4774 48.3521 11.662 48.4345 11.7646C48.517 11.8671 48.6612 11.9184 48.8775 11.9184C49.0217 11.9184 49.1556 11.8774 49.2689 11.7954V12.421H49.2792Z" fill="#2C2C2C"/>
<path d="M54.2036 7.35442C54.08 7.29288 53.9461 7.25186 53.7915 7.25186C53.3692 7.25186 53.1632 7.50827 53.1632 8.02109V8.57494H54.0491V9.19032H53.1632V12.4519H52.4112V9.20058H51.752V8.58519H52.4112V7.99032C52.4112 7.58006 52.5245 7.25186 52.7614 7.00571C52.9984 6.75955 53.3177 6.63647 53.7297 6.63647C53.9357 6.63647 54.0903 6.65699 54.2139 6.70827V7.35442H54.2036Z" fill="#2C2C2C"/>
<path d="M56.9746 9.33379C56.9334 9.30303 56.851 9.27226 56.748 9.24149C56.6449 9.22097 56.5522 9.20046 56.4801 9.20046C56.2123 9.20046 55.996 9.32354 55.8312 9.55944C55.6663 9.79533 55.5839 10.103 55.5839 10.4825V12.462H54.832V8.58508H55.5839V9.36456H55.6045C55.687 9.0979 55.8209 8.89277 55.996 8.73892C56.1711 8.58508 56.3771 8.51328 56.6037 8.51328C56.7582 8.51328 56.8819 8.53379 56.9643 8.56456V9.33379H56.9746Z" fill="#2C2C2C"/>
<path d="M61.2703 10.5019C61.2703 11.1275 61.0849 11.6301 60.7244 11.9993C60.3639 12.3685 59.8797 12.5532 59.2823 12.5532C58.6951 12.5532 58.2213 12.3685 57.871 12.0096C57.5208 11.6506 57.3457 11.1685 57.3457 10.5634C57.3457 9.91727 57.5311 9.4147 57.8916 9.04547C58.2522 8.67624 58.7466 8.49163 59.375 8.49163C59.9621 8.49163 60.4257 8.66598 60.7553 9.02496C61.1055 9.38393 61.2703 9.87624 61.2703 10.5019ZM60.4978 10.5224C60.4978 10.0609 60.3948 9.71214 60.199 9.47624C59.993 9.24034 59.7149 9.11727 59.3441 9.11727C58.9732 9.11727 58.6745 9.24034 58.4582 9.49675C58.2419 9.74291 58.1389 10.1019 58.1389 10.5532C58.1389 10.9942 58.2419 11.3327 58.4582 11.5788C58.6745 11.825 58.9629 11.948 59.3441 11.948C59.7252 11.948 60.0136 11.825 60.2093 11.5891C60.3948 11.3327 60.4978 10.9839 60.4978 10.5224Z" fill="#2C2C2C"/>
<path d="M67.996 12.4603H67.244V10.2552C67.244 9.85517 67.1822 9.56799 67.0586 9.38338C66.935 9.19876 66.7186 9.11671 66.4199 9.11671C66.1727 9.11671 65.9564 9.22953 65.7916 9.45517C65.6165 9.68081 65.534 9.95773 65.534 10.2654V12.4603H64.7821V10.1834C64.7821 9.47568 64.504 9.11671 63.958 9.11671C63.7005 9.11671 63.4842 9.22953 63.3193 9.44491C63.1545 9.6603 63.0721 9.93722 63.0721 10.2757V12.4706H62.3202V8.58337H63.0721V9.1885H63.0824C63.3605 8.71671 63.7726 8.49107 64.2979 8.49107C64.5452 8.49107 64.7718 8.56286 64.9778 8.6962C65.1735 8.82953 65.3177 9.0244 65.4104 9.27055C65.5649 9.00389 65.7401 8.80902 65.9564 8.67568C66.1727 8.55261 66.4199 8.48081 66.7083 8.48081C67.5633 8.48081 67.9857 9.00389 67.9857 10.0603V12.4603H67.996Z" fill="#2C2C2C"/>
<path d="M15.8954 6.99512H7.26318V15.6273H15.8954V6.99512Z" fill="#EB4335"/>
<path d="M25.4233 6.99512H16.7911V15.6273H25.4233V6.99512Z" fill="#30A851"/>
<path d="M15.8954 16.5122H7.26318V25.1444H15.8954V16.5122Z" fill="#547DBF"/>
<path d="M25.4233 16.5122H16.7911V25.1444H25.4233V16.5122Z" fill="#FABC13"/>
</g>
<defs>
<clipPath id="clip0_1_1944">
<rect width="89.0006" height="32" rx="4.35782" fill="white"/>
</clipPath>
</defs>
</svg>
